<?xml version="1.0" encoding="UTF-8" standalone="no"?>
<svg
   xmlns:dc="http://purl.org/dc/elements/1.1/"
   xmlns:cc="http://creativecommons.org/ns#"
   xmlns:rdf="http://www.w3.org/1999/02/22-rdf-syntax-ns#"
   xmlns:svg="http://www.w3.org/2000/svg"
   xmlns="http://www.w3.org/2000/svg"
   xmlns:sodipodi="http://sodipodi.sourceforge.net/DTD/sodipodi-0.dtd"
   xmlns:inkscape="http://www.inkscape.org/namespaces/inkscape"
   version="1.1"
   id="Layer_1"
   x="0px"
   y="0px"
   viewBox="0 0 367 116"
   xml:space="preserve"
   sodipodi:docname="airbnb-logo.svg"
   width="367"
   height="116"
   inkscape:version="1.0.1 (3bc2e813f5, 2020-09-07)"><metadata
   id="metadata853"><rdf:RDF><cc:Work
       rdf:about=""><dc:format>image/svg+xml</dc:format><dc:type
         rdf:resource="http://purl.org/dc/dcmitype/StillImage" /><dc:title></dc:title></cc:Work></rdf:RDF></metadata><defs
   id="defs851" /><sodipodi:namedview
   pagecolor="#ffffff"
   bordercolor="#666666"
   borderopacity="1"
   objecttolerance="10"
   gridtolerance="10"
   guidetolerance="10"
   inkscape:pageopacity="0"
   inkscape:pageshadow="2"
   inkscape:window-width="1920"
   inkscape:window-height="1013"
   id="namedview849"
   showgrid="false"
   inkscape:zoom="1.684"
   inkscape:cx="250"
   inkscape:cy="202.49406"
   inkscape:window-x="-9"
   inkscape:window-y="-9"
   inkscape:window-maximized="1"
   inkscape:current-layer="XMLID_1_" />
<style
   type="text/css"
   id="style844">
	.st0{fill:#FF5A5F;}
</style>

<g
   inkscape:groupmode="layer"
   id="layer1"
   inkscape:label="vector"><g
     id="XMLID_1_">
	<path
   id="XMLID_30_"
   class="st0"
   d="m 193.9,29.7 c 0,4.1 -3.3,7.4 -7.4,7.4 -4.1,0 -7.4,-3.3 -7.4,-7.4 0,-4.1 3.2,-7.4 7.4,-7.4 4.2,0.1 7.4,3.4 7.4,7.4 z m -30.6,14.9 c 0,0.7 0,1.8 0,1.8 0,0 -3.5,-4.6 -11.1,-4.6 -12.4,0 -22.1,9.5 -22.1,22.6 0,13 9.6,22.6 22.1,22.6 7.6,0 11.1,-4.7 11.1,-4.7 v 1.9 c 0,0.9 0.7,1.6 1.6,1.6 h 9.2 V 43 c 0,0 -8.4,0 -9.2,0 -0.9,0 -1.6,0.8 -1.6,1.6 z m 0,27.5 c -1.7,2.5 -5.1,4.7 -9.2,4.7 -7.3,0 -12.9,-4.6 -12.9,-12.3 0,-7.8 5.6,-12.3 12.9,-12.3 4,0 7.6,2.3 9.2,4.7 z M 181,43 h 10.9 V 85.9 H 181 Z m 163.5,-1.1 c -7.5,0 -11.1,4.6 -11.1,4.6 V 22.4 h -10.9 v 63.5 c 0,0 8.4,0 9.2,0 0.9,0 1.6,-0.8 1.6,-1.6 v -1.9 c 0,0 3.5,4.7 11.1,4.7 12.4,0 22.1,-9.6 22.1,-22.6 0,-13.1 -9.7,-22.6 -22,-22.6 z m -1.8,34.7 c -4.2,0 -7.5,-2.2 -9.2,-4.7 V 56.6 c 1.7,-2.3 5.4,-4.7 9.2,-4.7 7.3,0 12.9,4.6 12.9,12.3 0,7.9 -5.6,12.4 -12.9,12.4 z M 316.8,60.5 V 86 H 305.9 V 61.7 c 0,-7.1 -2.3,-9.9 -8.4,-9.9 -3.3,0 -6.7,1.7 -8.9,4.2 V 85.9 H 277.7 V 43 h 8.7 c 0.9,0 1.6,0.8 1.6,1.6 v 1.8 c 3.2,-3.3 7.4,-4.6 11.6,-4.6 4.8,0 8.8,1.4 12,4.1 3.7,3.3 5.2,7.4 5.2,14.6 z M 251,41.9 c -7.5,0 -11.1,4.6 -11.1,4.6 V 22.4 H 229 v 63.5 c 0,0 8.4,0 9.2,0 0.9,0 1.6,-0.8 1.6,-1.6 v -1.9 c 0,0 3.5,4.7 11.1,4.7 12.4,0 22.1,-9.6 22.1,-22.6 0.1,-13.1 -9.6,-22.6 -22,-22.6 z m -1.8,34.7 c -4.2,0 -7.5,-2.2 -9.2,-4.7 V 56.6 c 1.7,-2.3 5.4,-4.7 9.2,-4.7 7.3,0 12.9,4.6 12.9,12.3 0,7.9 -5.6,12.4 -12.9,12.4 z M 219.5,41.9 c 3.3,0 5,0.6 5,0.6 v 10.1 c 0,0 -9.1,-3.1 -14.8,3.4 V 86 H 198.8 V 43 c 0,0 8.4,0 9.2,0 0.9,0 1.6,0.8 1.6,1.6 v 1.8 c 2.1,-2.4 6.5,-4.5 9.9,-4.5 z M 105.8,82 c -0.6,-1.4 -1.1,-2.9 -1.7,-4.1 -0.9,-2.1 -1.8,-4 -2.6,-5.8 L 101.4,72 C 93.5,54.9 85.1,37.6 76.2,20.5 L 75.9,19.8 C 75,18.1 74.1,16.3 73.2,14.4 72.1,12.3 70.9,10.2 69.1,8.1 65.5,3.5 60.2,1 54.6,1 48.9,1 43.8,3.5 40,7.8 38.3,9.9 37,12 35.9,14.1 35,15.9 34.1,17.7 33.2,19.5 l -0.3,0.7 C 24.1,37.3 15.6,54.6 7.7,71.7 L 7.6,71.9 C 6.8,73.7 5.9,75.7 5,77.7 4.4,79 3.9,80.3 3.3,81.8 1.8,86 1.4,90 1.9,94.1 c 1.3,8.6 7,15.7 14.8,18.9 3,1.3 6,1.8 9.2,1.8 0.9,0 2.1,-0.1 3,-0.2 3.8,-0.5 7.6,-1.7 11.4,-3.9 4.7,-2.6 9.1,-6.4 14.1,-11.9 5,5.5 9.6,9.2 14.1,11.9 3.8,2.2 7.6,3.4 11.4,3.9 0.9,0.1 2.1,0.2 3,0.2 3.2,0 6.4,-0.6 9.2,-1.8 8,-3.2 13.6,-10.5 14.8,-18.9 0.9,-3.9 0.4,-7.9 -1.1,-12.1 z M 54.4,87.9 C 48.2,80.1 44.3,72.8 42.9,66.7 c -0.6,-2.6 -0.7,-4.9 -0.3,-7 0.2,-1.8 0.9,-3.4 1.8,-4.8 2.2,-3.1 5.8,-5 10,-5 4.2,0 8,1.8 10,5 0.9,1.4 1.6,3 1.8,4.8 0.3,2.1 0.2,4.4 -0.3,7 -1.3,6.1 -5.3,13.4 -11.5,21.2 z m 45.5,5.4 c -0.8,5.9 -4.8,11.1 -10.4,13.3 -2.7,1.1 -5.7,1.5 -8.7,1.1 -2.9,-0.3 -5.7,-1.3 -8.7,-3 -4.1,-2.3 -8.2,-5.8 -13,-11.1 7.5,-9.2 12.1,-17.7 13.8,-25.2 0.8,-3.5 0.9,-6.7 0.6,-9.7 C 73,55.8 72,53.2 70.4,50.9 66.9,45.8 60.9,42.8 54.3,42.8 c -6.6,0 -12.5,3.1 -16.1,8.1 -1.6,2.3 -2.6,4.9 -3.1,7.8 -0.5,3 -0.3,6.3 0.6,9.7 1.7,7.5 6.4,16.1 13.8,25.3 -4.7,5.2 -8.9,8.8 -13,11.1 -3,1.7 -5.8,2.6 -8.7,3 -3.1,0.3 -6,-0.1 -8.7,-1.1 -5.6,-2.3 -9.6,-7.4 -10.4,-13.3 -0.3,-2.9 -0.1,-5.7 1,-8.9 0.3,-1.1 0.9,-2.3 1.5,-3.6 0.8,-1.8 1.7,-3.8 2.6,-5.7 L 13.9,75 C 21.8,58 30.2,40.7 39,23.8 l 0.3,-0.7 c 0.9,-1.7 1.8,-3.5 2.7,-5.2 0.9,-1.8 1.9,-3.5 3.2,-5 2.4,-2.7 5.6,-4.2 9.1,-4.2 3.5,0 6.7,1.5 9.1,4.2 1.3,1.5 2.3,3.2 3.2,5 0.9,1.7 1.8,3.5 2.7,5.2 l 0.3,0.7 c 8.7,17 17.1,34.3 25,51.3 v 0.1 c 0.9,1.8 1.7,3.9 2.6,5.7 0.6,1.4 1.1,2.5 1.5,3.6 1.3,3 1.7,5.8 1.2,8.8 z"
   style="fill:#8c8c8c;fill-opacity:1" />
</g></g></svg>
