<?xml version="1.0" encoding="UTF-8" standalone="no"?>
<svg
   xmlns:dc="http://purl.org/dc/elements/1.1/"
   xmlns:cc="http://creativecommons.org/ns#"
   xmlns:rdf="http://www.w3.org/1999/02/22-rdf-syntax-ns#"
   xmlns:svg="http://www.w3.org/2000/svg"
   xmlns="http://www.w3.org/2000/svg"
   xmlns:xlink="http://www.w3.org/1999/xlink"
   xmlns:sodipodi="http://sodipodi.sourceforge.net/DTD/sodipodi-0.dtd"
   xmlns:inkscape="http://www.inkscape.org/namespaces/inkscape"
   version="1.1"
   id="svg833"
   width="505"
   height="221"
   viewBox="0 0 505 221"
   sodipodi:docname="ccs-logo.svg"
   inkscape:version="1.0.1 (3bc2e813f5, 2020-09-07)">
  <metadata
     id="metadata839">
    <rdf:RDF>
      <cc:Work
         rdf:about="">
        <dc:format>image/svg+xml</dc:format>
        <dc:type
           rdf:resource="http://purl.org/dc/dcmitype/StillImage" />
        <dc:title></dc:title>
      </cc:Work>
    </rdf:RDF>
  </metadata>
  <defs
     id="defs837" />
  <sodipodi:namedview
     pagecolor="#ffffff"
     bordercolor="#666666"
     borderopacity="1"
     objecttolerance="10"
     gridtolerance="10"
     guidetolerance="10"
     inkscape:pageopacity="0"
     inkscape:pageshadow="2"
     inkscape:window-width="1920"
     inkscape:window-height="1013"
     id="namedview835"
     showgrid="false"
     inkscape:zoom="5.6568543"
     inkscape:cx="236.38674"
     inkscape:cy="65.791125"
     inkscape:window-x="-9"
     inkscape:window-y="-9"
     inkscape:window-maximized="1"
     inkscape:current-layer="layer1" />
  <g
     inkscape:groupmode="layer"
     inkscape:label="Image"
     id="g841"
     sodipodi:insensitive="true"
     style="display:inline">
    <image
       sodipodi:absref="C:\Users\maxim\OneDrive\Documents\GitHub\capstone-module-1\assets\images\ccs-logo-source.png"
       xlink:href="../images/ccs-logo-source.png"
       id="image843"
       style="image-rendering:optimizeSpeed"
       preserveAspectRatio="none"
       height="221"
       width="505" />
  </g>
  <g
     inkscape:groupmode="layer"
     id="layer1"
     inkscape:label="vector"
     style="display:inline"
     sodipodi:insensitive="true">
    <path
       style="fill:none;stroke:#4d4d4d;stroke-width:1px;stroke-linecap:butt;stroke-linejoin:miter;stroke-opacity:1"
       d="M 166.10748,190.55985 H 501.27359"
       id="path845" />
    <path
       style="fill:none;stroke:#000000;stroke-width:1.00157;stroke-linecap:butt;stroke-linejoin:miter;stroke-miterlimit:4;stroke-dasharray:none;stroke-opacity:0"
       d="m 166.20539,220.64199 335.24178,0.0599"
       id="path847"
       sodipodi:nodetypes="cc" />
    <path
       style="opacity:1;fill:#ee5134;fill-opacity:1;stroke:none;stroke-width:1.01855;stroke-linecap:round;stroke-linejoin:round;stroke-miterlimit:4;stroke-dasharray:none;stroke-opacity:1"
       id="path852"
       sodipodi:type="arc"
       sodipodi:cx="34.527435"
       sodipodi:cy="41.384586"
       sodipodi:rx="27.737108"
       sodipodi:ry="27.737108"
       sodipodi:start="0"
       sodipodi:end="6.0712849"
       sodipodi:open="true"
       sodipodi:arc-type="arc"
       d="M 62.264544,41.384586 A 27.737108,27.737108 0 0 1 35.996124,69.082783 27.737108,27.737108 0 0 1 6.9458622,44.317844 27.737108,27.737108 0 0 1 30.13784,13.997023 27.737108,27.737108 0 0 1 61.644147,35.550968" />
    <path
       style="opacity:1;fill:#a19fab;fill-opacity:1;stroke:none;stroke-width:1px;stroke-linecap:butt;stroke-linejoin:miter;stroke-opacity:1"
       d="M 46.049524,9.2472674 C 51.431831,1.8577646 58.758051,-0.6719558 67.626481,0.65384719 79.067743,2.6059655 86.482897,14.013519 85.000135,23.071465 83.568389,37.232744 74.342457,39.363463 68.803683,42.351712 69.899036,27.412395 58.498376,15.145229 46.049524,9.2472674 Z"
       id="path862"
       sodipodi:nodetypes="ccccc" />
    <path
       style="opacity:1;fill:#000000;fill-opacity:1;stroke:none;stroke-width:1px;stroke-linecap:butt;stroke-linejoin:miter;stroke-opacity:1"
       d="m 13.077611,67.8979 11.096155,6.406708 c -5.214342,9.287477 -11.763967,18.123307 -11.492446,37.185332 0.190899,13.402 5.772227,22.42902 10.83196,31.17491 4.786453,8.27352 14.476665,17.49886 30.514426,23.64537 15.668486,6.00498 32.56349,4.18355 47.422854,-3.69871 11.03913,-5.85579 21.78739,-16.60871 26.9478,-28.66507 5.44031,-12.7103 5.65878,-27.85505 2.25229,-41.415754 -3.3274,-10.194088 -7.947,-18.476396 -14.66941,-25.293272 -5.12798,-5.200039 -9.8358,-10.329924 -24.041672,-15.191164 -7.780372,-2.662437 -15.425254,-2.51273 -23.768316,-2.298992 0.486501,-4.990295 0.901461,-9.991096 0.34272,-13.312503 8.327458,-0.830682 16.022819,0.25208 24.350277,2.137593 10.434481,2.468195 19.927641,7.44696 27.888511,14.467949 8.06538,7.113155 14.82607,15.596652 19.40224,26.350049 7.99774,24.130604 5.48018,39.893944 4.22711,46.630274 -4.32127,21.73685 -16.85887,32.97506 -29.98604,43.45993 C 84.841751,188.50853 56.592173,181.7544 44.120425,176.21751 30.656156,169.67786 13.39024,163.00916 3.9629124,133.41805 0.1560471,121.46881 -3.0011039,109.01533 3.4345241,87.051976 5.6799324,79.388903 8.9615075,72.579303 13.077611,67.8979 Z"
       id="path856"
       sodipodi:nodetypes="ccssssacsscccsccccssc" />
    <path
       style="opacity:1;fill:#000000;fill-opacity:1;stroke:none;stroke-width:1.06286;stroke-linecap:round;stroke-linejoin:round;stroke-miterlimit:4;stroke-dasharray:none;stroke-opacity:1"
       id="path859"
       sodipodi:type="arc"
       sodipodi:cx="123.16504"
       sodipodi:cy="20.440285"
       sodipodi:rx="10.308738"
       sodipodi:ry="10.308738"
       sodipodi:start="0"
       sodipodi:end="6.0712849"
       sodipodi:open="true"
       sodipodi:arc-type="arc"
       d="m 133.47378,20.440285 a 10.308738,10.308738 0 0 1 -9.76289,10.294276 10.308738,10.308738 0 0 1 -10.79678,-9.204106 10.308738,10.308738 0 0 1 8.6195,-11.268997 10.308738,10.308738 0 0 1 11.70959,8.010712" />
    <path
       style="opacity:1;fill:#000000;fill-opacity:1;stroke:none;stroke-width:1.10012px;stroke-linecap:butt;stroke-linejoin:miter;stroke-opacity:1"
       d="m 35.165313,87.690593 0.01936,30.029177 c 0.31081,16.8511 31.559542,22.10249 35.741212,0 L 70.911365,87.690593 H 59.706113 l 0.02348,28.029177 c 0.418582,9.92749 -13.631556,10.13502 -13.297778,0 l -0.01356,-28.029177 z"
       id="path865"
       sodipodi:nodetypes="ccccccccc" />
    <path
       style="display:inline;opacity:1;fill:#000000;fill-opacity:1;stroke:none;stroke-width:1px;stroke-linecap:butt;stroke-linejoin:miter;stroke-opacity:1"
       d="m 203,137 v 37.83049 c 2.07956,11.90555 14.11305,6.8079 19.00117,1.18887 l 0.004,5.96841 7.9652,0.004 L 229.98133,137 H 222 v 33.53733 c -4.3065,4.01438 -8.38089,6.76413 -11,1.58517 V 137 Z"
       id="path868"
       sodipodi:nodetypes="ccccccccccc" />
    <path
       style="display:inline;opacity:1;fill:#000000;fill-opacity:1;stroke:none;stroke-width:1.21562px;stroke-linecap:butt;stroke-linejoin:miter;stroke-opacity:1"
       d="m 164.38643,39.690593 0.0237,60.029177 c 0.3795,16.8511 35.2849,22.10249 40.3908,0 l -0.0177,-60.029177 h -12.1818 l 0.0287,56.029177 c 0.51111,9.92749 -16.64442,10.13502 -16.23686,0 l -0.0165,-56.029177 z"
       id="path873"
       sodipodi:nodetypes="ccccccccc" />
    <path
       style="display:inline;opacity:1;fill:#000000;fill-opacity:1;stroke:none;stroke-width:1.01921px;stroke-linecap:butt;stroke-linejoin:miter;stroke-opacity:1"
       d="m 104.47503,102.36524 c -1.3323,-3.757821 -3.93832,-6.299461 -8.467964,-6.012255 -8.561715,0.542864 -10.333478,8.623925 -10.078138,13.916025 0.36376,7.53919 4.242138,12.65856 10.445554,11.99229 7.485128,-0.80393 7.738458,-3.12696 9.117008,-5.23407 l 8.79464,4.27635 c -3.70889,5.99487 -8.26227,11.04057 -18.826717,10.72088 -12.115626,-0.36664 -21.14002,-4.55256 -21.478368,-21.57931 -0.3261,-16.410362 8.70331,-23.50016 20.417708,-23.688846 14.180947,-0.228415 17.604187,6.591256 19.843187,10.34144 z"
       id="path879"
       sodipodi:nodetypes="csssccssscc" />
    <path
       style="display:inline;opacity:1;fill:#000000;fill-opacity:1;stroke:none;stroke-width:1px;stroke-linecap:butt;stroke-linejoin:miter;stroke-opacity:1"
       d="m 253.93972,86.885746 c -0.33269,9.518184 -0.27108,15.880744 -4.33103,20.682874 -7.99176,9.45269 -28.80019,9.60142 -33.85273,-4.06587 -0.78173,-2.11461 -1.72136,-6.540733 -1.72136,-6.540733 l -0.0464,-39.332814 c 0,0 0.0744,-5.367499 1.09635,-7.778175 4.7475,-11.198675 18.0846,-14.635611 29.81904,-8.751366 6.7914,3.405556 7.95592,12.845215 8.61473,21.865011 l -10.99991,-0.02145 c 0,0 0.24659,-8.574707 -2.32306,-11.501209 -3.57904,-4.076055 -9.8847,-3.442111 -12.82834,0.208027 -1.25182,1.552262 -2.32583,5.802381 -2.32583,5.802381 l -0.0303,37.388271 c 0.4599,2.556813 1.64463,5.417077 3.76057,7.020217 3.34239,2.53235 8.41276,2.30011 11.10476,-0.83931 3.06475,-3.574121 2.51341,-8.514292 2.6659,-13.870693 z"
       id="path882"
       sodipodi:nodetypes="cssccssccssccsscc" />
    <path
       style="display:inline;opacity:1;fill:#000000;fill-opacity:1;stroke:none;stroke-width:1px;stroke-linecap:butt;stroke-linejoin:miter;stroke-opacity:1"
       d="m 341.01251,39.031038 v 73.960972 l 9.00535,-0.0161 0.01,-73.996669 z"
       id="path885"
       sodipodi:nodetypes="ccccc" />
    <path
       style="display:inline;opacity:1;fill:#000000;fill-opacity:1;stroke:none;stroke-width:1px;stroke-linecap:butt;stroke-linejoin:miter;stroke-opacity:1"
       d="m 491.01251,39.031038 v 73.960972 l 9.00535,-0.0161 0.01,-73.996669 z"
       id="path887"
       sodipodi:nodetypes="ccccc" />
  </g>
  <g
     inkscape:groupmode="layer"
     id="layer2"
     inkscape:label="new-part"
     style="display:inline" />
</svg>
