<?xml version="1.0" encoding="UTF-8" standalone="no"?>
<svg
   xmlns:dc="http://purl.org/dc/elements/1.1/"
   xmlns:cc="http://creativecommons.org/ns#"
   xmlns:rdf="http://www.w3.org/1999/02/22-rdf-syntax-ns#"
   xmlns:svg="http://www.w3.org/2000/svg"
   xmlns="http://www.w3.org/2000/svg"
   xmlns:xlink="http://www.w3.org/1999/xlink"
   xmlns:sodipodi="http://sodipodi.sourceforge.net/DTD/sodipodi-0.dtd"
   xmlns:inkscape="http://www.inkscape.org/namespaces/inkscape"
   version="1.1"
   width="64px"
   height="64px"
   id="svg851"
   sodipodi:docname="creative-commons-logo-white.svg"
   inkscape:version="1.0.1 (3bc2e813f5, 2020-09-07)">
  <metadata
     id="metadata857">
    <rdf:RDF>
      <cc:Work
         rdf:about="">
        <dc:format>image/svg+xml</dc:format>
        <dc:type
           rdf:resource="http://purl.org/dc/dcmitype/StillImage" />
        <dc:title></dc:title>
      </cc:Work>
    </rdf:RDF>
  </metadata>
  <defs
     id="defs855" />
  <sodipodi:namedview
     pagecolor="#ffffff"
     bordercolor="#666666"
     borderopacity="1"
     objecttolerance="10"
     gridtolerance="10"
     guidetolerance="10"
     inkscape:pageopacity="0"
     inkscape:pageshadow="2"
     inkscape:window-width="1920"
     inkscape:window-height="1013"
     id="namedview853"
     showgrid="false"
     inkscape:zoom="13.15625"
     inkscape:cx="32"
     inkscape:cy="22.87886"
     inkscape:window-x="-9"
     inkscape:window-y="-9"
     inkscape:window-maximized="1"
     inkscape:current-layer="layer1"
     inkscape:document-rotation="0" />
  <g
     inkscape:groupmode="layer"
     id="layer1"
     inkscape:label="vector">
    <path
       d="M31.957,0.311c-8.682,0-16.322,3.213-22.226,9.203  C3.653,15.678,0.354,23.666,0.354,32c0,8.422,3.212,16.236,9.29,22.313c6.078,6.078,13.978,9.377,22.313,9.377  c8.334,0,16.409-3.299,22.66-9.463c5.904-5.817,9.029-13.544,9.029-22.227c0-8.595-3.125-16.408-9.116-22.399  C48.453,3.523,40.639,0.311,31.957,0.311z M32.043,6.041c7.12,0,13.458,2.691,18.406,7.641c4.862,4.861,7.466,11.286,7.466,18.318  c0,7.119-2.518,13.371-7.379,18.146c-5.123,5.035-11.721,7.727-18.493,7.727c-6.858,0-13.283-2.691-18.232-7.641  C8.862,45.283,6.084,38.772,6.084,32c0-6.858,2.778-13.369,7.727-18.406C18.673,8.646,24.924,6.041,32.043,6.041z"
       id="path846"
       style="stroke:none;stroke-opacity:1;fill:#ffffff;fill-opacity:1" />
    <path
       id="c"
       d="M31.635,26.734c-1.79-3.264-4.844-4.563-8.389-4.563  c-5.16,0-9.267,3.65-9.267,9.828c0,6.283,3.861,9.829,9.442,9.829c3.581,0,6.635-1.966,8.319-4.949l-3.931-2.001  c-0.878,2.105-2.212,2.738-3.896,2.738c-2.914,0-4.248-2.422-4.248-5.617c0-3.193,1.124-5.616,4.248-5.616  c0.842,0,2.527,0.456,3.51,2.563L31.635,26.734z"
       style="stroke:none;stroke-opacity:1;fill:#ffffff;fill-opacity:1" />
    <use
       xlink:href="#c"
       transform="translate(18.281)"
       id="use849"
       style="stroke:none;stroke-opacity:1;fill:#ffffff;fill-opacity:1" />
  </g>
</svg>
