<?xml version="1.0" encoding="UTF-8" standalone="no"?>
<svg
   xmlns:dc="http://purl.org/dc/elements/1.1/"
   xmlns:cc="http://creativecommons.org/ns#"
   xmlns:rdf="http://www.w3.org/1999/02/22-rdf-syntax-ns#"
   xmlns:svg="http://www.w3.org/2000/svg"
   xmlns="http://www.w3.org/2000/svg"
   xmlns:sodipodi="http://sodipodi.sourceforge.net/DTD/sodipodi-0.dtd"
   xmlns:inkscape="http://www.inkscape.org/namespaces/inkscape"
   version="1.1"
   id="svg2997"
   width="181"
   height="46"
   viewBox="-0.5 -0.5 181 46"
   overflow="visible"
   enable-background="new -0.5 -0.5 200 200"
   xml:space="preserve"
   sodipodi:docname="mozilla-logo.svg"
   inkscape:version="1.0.1 (3bc2e813f5, 2020-09-07)"><metadata
   id="metadata930"><rdf:RDF><cc:Work
       rdf:about=""><dc:format>image/svg+xml</dc:format><dc:type
         rdf:resource="http://purl.org/dc/dcmitype/StillImage" /><dc:title></dc:title></cc:Work></rdf:RDF></metadata><defs
   id="defs928" /><sodipodi:namedview
   pagecolor="#ffffff"
   bordercolor="#666666"
   borderopacity="1"
   objecttolerance="10"
   gridtolerance="10"
   guidetolerance="10"
   inkscape:pageopacity="0"
   inkscape:pageshadow="2"
   inkscape:window-width="1920"
   inkscape:window-height="1013"
   id="namedview926"
   showgrid="false"
   inkscape:zoom="4.21"
   inkscape:cx="100"
   inkscape:cy="61.995249"
   inkscape:window-x="-9"
   inkscape:window-y="-9"
   inkscape:window-maximized="1"
   inkscape:current-layer="layer1" />
<path
   id="path85"
   fill="#ffffff"
   d="m -2559.936,6359.65 c 19.127,26.489 46.371,47.744 80.988,44.707 -0.391,-32.709 -44.95,-51.716 -80.988,-44.707 z" />
<path
   id="path93"
   fill="#ffffff"
   d="m -2634.014,6073.506 c 4.082,-7.232 2.571,-17.81 3.831,-26.684 -9.019,4.635 -15.506,14.72 -24.551,18.641 2.6,5.355 14.287,5.366 20.72,8.043 z" />
<path
   id="path95"
   fill="#ffffff"
   d="m -2687.179,6018.109 -18.654,18.212 c 4.158,3.301 9.676,8.132 17.11,6.36 z" />
<path
   id="path97"
   fill="#ffffff"
   d="m -2731.117,5998.391 c -4.356,-0.363 -14.41,20.156 -18.785,19.857 l 14.762,8.728 c 5.085,0.305 2.324,-25.015 4.023,-28.585 z" />
<path
   id="path99"
   fill="#ffffff"
   d="m -2776.505,5989.09 4.736,-11.668 c -10.245,0.813 -15.511,20.68 -21.719,26.244 17.118,3.443 17.761,8.144 16.983,-14.576 z" />
<path
   id="path101"
   fill="#ffffff"
   d="m -2825.16,5962.186 -18.405,31.539 17.091,3.962 z" />
<path
   id="path103"
   fill="#ffffff"
   d="m -2872.173,5967.636 -21.059,16.139 c 21.197,8.295 22.411,11.406 21.059,-16.139 z" />
<path
   id="path105"
   fill="#ffffff"
   d="m -2922.987,5980.398 c -3.084,-9.172 -0.18,-20.226 0.396,-29.914 -4.952,9.422 -16.338,16.166 -17.745,27.299 4.847,4.019 11.54,2.238 17.349,2.615 z" />
<g
   inkscape:groupmode="layer"
   id="layer1"
   inkscape:label="Vector"><g
     id="g923"
     style="fill:#888888;fill-opacity:1;stroke:none;stroke-opacity:1"
     transform="translate(-9.2874109,-116.95012)">
	
	
	
	
	
	
	
	
	
	
	
	
	
	
	
	
	
	
	
	
	
	
	
	
	
	
	
	
	<g
   id="g3173"
   transform="translate(-0.4495808,1251.722)"
   style="fill:#888888;fill-opacity:1;stroke:none;stroke-opacity:1">
		<path
   id="path2320"
   d="m 185.373,-1089.163 c -1.527,-0.85 -2.496,-1.666 -3.189,-2.689 l -0.402,-0.596 -0.586,0.516 c -0.816,0.725 -1.141,0.965 -1.887,1.406 -1.727,1.02 -4.043,1.439 -6.92,1.252 -5.955,-0.385 -9.082,-3.238 -9.49,-8.66 -0.182,-2.412 0.223,-4.607 1.158,-6.289 1.281,-2.305 3.789,-3.914 7.313,-4.695 1.803,-0.398 3.266,-0.545 5.977,-0.594 l 2.516,-0.049 -0.049,-1.311 c -0.027,-0.723 -0.09,-1.543 -0.137,-1.824 -0.25,-1.477 -0.871,-2.223 -2.035,-2.445 -0.902,-0.17 -1.32,-0.18 -2.357,-0.053 -2.006,0.246 -4.098,1.066 -6.678,2.623 -0.691,0.416 -1.297,0.744 -1.346,0.725 -0.096,-0.037 -3.463,-5.682 -3.461,-5.799 0.008,-0.166 2.094,-1.316 3.582,-1.973 4.023,-1.775 6.543,-2.377 9.953,-2.377 3.17,0 5.359,0.533 7.127,1.736 0.693,0.473 1.736,1.551 2.115,2.186 0.35,0.586 0.777,1.646 1.012,2.51 l 0.189,0.691 -0.041,4.766 c -0.021,2.619 -0.041,6.43 -0.041,8.467 0,4.178 0,4.18 0.633,5.414 0.273,0.537 0.498,0.814 1.266,1.57 0.855,0.842 0.922,0.93 0.809,1.059 -0.068,0.076 -1.029,1.184 -2.137,2.461 -1.109,1.275 -2.057,2.328 -2.107,2.338 -0.052,0.011 -0.404,-0.156 -0.787,-0.366 z m -9.47,-6.29 c 1.229,-0.154 2.246,-0.641 3.182,-1.518 l 0.508,-0.477 0.055,-3.168 0.053,-3.168 -1.316,0.057 c -4.154,0.178 -5.707,0.842 -6.377,2.729 -0.213,0.596 -0.295,2.16 -0.146,2.787 0.334,1.418 1.457,2.533 2.768,2.748 0.246,0.039 0.486,0.078 0.531,0.082 0.042,0.01 0.378,-0.027 0.742,-0.072 z m -38.28,5.735 c -1.318,-0.205 -2.459,-0.68 -3.502,-1.459 -1.109,-0.826 -1.762,-1.803 -2.238,-3.348 -0.445,-1.441 -0.436,-1.025 -0.49,-18.475 -0.051,-15.838 -0.057,-16.158 -0.236,-18.186 -0.102,-1.135 -0.162,-2.086 -0.137,-2.111 0.074,-0.074 8.055,-1.891 8.154,-1.857 0.098,0.037 0.248,1.135 0.361,2.654 0.162,10.801 0.012,21.605 0.156,32.406 0.063,2.619 0.086,2.936 0.24,3.373 0.379,1.078 0.902,1.469 1.963,1.465 0.336,0 0.662,-0.018 0.727,-0.039 0.105,-0.033 0.479,1.133 1.371,4.289 l 0.162,0.578 -1.271,0.334 c -1.849,0.487 -3.697,0.618 -5.26,0.376 z m 16.932,0.074 c -1.066,-0.125 -1.982,-0.391 -2.85,-0.822 -2.164,-1.08 -3.219,-2.633 -3.713,-5.475 -0.066,-0.375 -0.109,-5.193 -0.146,-16.57 -0.053,-15.98 -0.055,-16.049 -0.25,-18.383 -0.117,-1.43 -0.164,-2.367 -0.119,-2.408 0.102,-0.088 8.1,-1.91 8.152,-1.857 0.088,0.088 0.268,1.711 0.348,3.148 0.213,11.125 -0.035,22.258 0.162,33.383 0.055,1.18 0.107,1.611 0.238,1.984 0.221,0.625 0.525,1.014 0.945,1.199 0.457,0.203 1.182,0.281 1.516,0.166 0.174,-0.063 0.283,-0.066 0.316,-0.014 0.078,0.129 1.402,4.816 1.369,4.85 -0.016,0.018 -0.504,0.164 -1.084,0.328 -1.398,0.393 -3.689,0.614 -4.884,0.471 z m -86.879,-0.072 c -0.134,-0.018 -0.61,-0.076 -1.059,-0.127 -0.447,-0.053 -1.237,-0.215 -1.756,-0.363 -5.568,-1.582 -9.046,-6.182 -9.853,-13.021 -0.124,-1.047 -0.123,-3.988 10e-4,-5.09 0.362,-3.213 1.4,-6.119 2.997,-8.387 1.083,-1.537 2.861,-3.086 4.462,-3.889 2.021,-1.016 3.78,-1.402 6.368,-1.402 2.15,0 3.536,0.219 5.156,0.816 3.931,1.449 7.106,5.004 8.254,9.238 0.922,3.398 0.905,8.645 -0.037,12.051 -0.744,2.691 -2.024,4.861 -3.966,6.725 -1.942,1.864 -4.086,2.918 -6.7,3.297 -0.768,0.111 -3.4,0.214 -3.867,0.152 z m 3.094,-6.311 c 1.815,-0.824 2.693,-2.672 3.095,-6.512 0.153,-1.465 0.177,-5.111 0.041,-6.512 -0.375,-3.879 -1.335,-5.748 -3.356,-6.531 -1.055,-0.41 -2.505,-0.303 -3.577,0.262 -1.823,0.959 -2.647,2.99 -2.926,7.207 -0.158,2.404 -0.013,5.633 0.343,7.572 0.475,2.602 1.225,3.77 2.859,4.457 0.768,0.322 1.166,0.387 2.144,0.344 0.697,-0.029 0.9,-0.072 1.377,-0.287 z m -60.456,-20.718 c -0.13,-1.063 -0.376,-2.029 -0.667,-2.621 -0.147,-0.301 -0.224,-0.547 -0.182,-0.584 0.09,-0.078 7.021,-1.965 7.22,-1.965 0.204,0 0.671,0.98 0.915,1.92 0.112,0.432 0.204,0.855 0.204,0.939 0,0.086 0.027,0.152 0.061,0.152 0.034,0 0.391,-0.277 0.794,-0.615 1.52,-1.27 3.532,-2.127 5.465,-2.324 2.115,-0.217 4.02,0.1 5.551,0.92 0.98,0.527 2.146,1.512 2.768,2.336 l 0.488,0.646 0.314,-0.326 c 0.76,-0.789 2.256,-1.92 3.307,-2.496 0.898,-0.494 2.17,-0.893 3.413,-1.074 1.114,-0.16 3.312,-0.063 4.384,0.197 1.185,0.287 2.204,0.719 2.971,1.26 1.574,1.109 2.172,2.082 2.584,4.207 0.172,0.885 0.174,1.025 0.203,13.373 l 0.029,12.479 H 42.15 v -10.934 c 0,-7.029 -0.03,-11.18 -0.084,-11.623 -0.198,-1.623 -0.574,-2.096 -1.798,-2.268 -1.429,-0.199 -3.438,0.574 -5.267,2.025 l -0.667,0.529 v 22.27 h -7.729 c -0.473,-7.383 0.652,-15.438 -0.186,-22.727 -0.296,-1.432 -0.807,-1.955 -2.059,-2.107 -1.462,-0.178 -3.452,0.498 -5.153,1.75 l -0.664,0.488 -0.005,22.596 h -7.979 c -0.277,-8.74 0.492,-17.726 -0.245,-26.423 z m 76.222,21.253 14.459,-19.949 -13.248,-0.043 v -5.779 h 23.043 v 5.578 c -4.503,6.535 -9.129,12.986 -13.598,19.545 l 14.179,0.037 -0.059,0.182 -1.888,5.559 -22.899,0.041 z m 30.199,-25.361 0.184,-0.041 c 2.588,-0.43 5.186,-0.809 7.775,-1.227 l 0.266,-0.045 v 31.844 h -8.225 z m 3.541,-4.086 c -1.963,-0.195 -3.682,-1.678 -4.188,-3.611 -0.703,-2.688 0.707,-5.361 3.273,-6.201 0.484,-0.158 0.754,-0.191 1.592,-0.191 1.578,0 2.482,0.357 3.508,1.381 0.986,0.986 1.412,2.068 1.418,3.586 0.004,1.563 -0.406,2.584 -1.457,3.637 -1.09,1.093 -2.488,1.565 -4.146,1.399 z"
   style="fill:#888888;fill-opacity:1;stroke:none;stroke-opacity:1" />
	</g>
</g></g>
</svg>
