<?xml version="1.0" encoding="UTF-8" standalone="no"?>
<svg
   xmlns:dc="http://purl.org/dc/elements/1.1/"
   xmlns:cc="http://creativecommons.org/ns#"
   xmlns:rdf="http://www.w3.org/1999/02/22-rdf-syntax-ns#"
   xmlns:svg="http://www.w3.org/2000/svg"
   xmlns="http://www.w3.org/2000/svg"
   xmlns:sodipodi="http://sodipodi.sourceforge.net/DTD/sodipodi-0.dtd"
   xmlns:inkscape="http://www.inkscape.org/namespaces/inkscape"
   version="1.1"
   id="Layer_1"
   x="0px"
   y="0px"
   width="520.345px"
   height="93.715px"
   viewBox="0 0 520.345 93.715"
   xml:space="preserve"
   sodipodi:docname="naver-logo.svg"
   inkscape:version="1.0.1 (3bc2e813f5, 2020-09-07)"><metadata
   id="metadata869"><rdf:RDF><cc:Work
       rdf:about=""><dc:format>image/svg+xml</dc:format><dc:type
         rdf:resource="http://purl.org/dc/dcmitype/StillImage" /></cc:Work></rdf:RDF></metadata><defs
   id="defs867" /><sodipodi:namedview
   pagecolor="#ffffff"
   bordercolor="#666666"
   borderopacity="1"
   objecttolerance="10"
   gridtolerance="10"
   guidetolerance="10"
   inkscape:pageopacity="0"
   inkscape:pageshadow="2"
   inkscape:window-width="1920"
   inkscape:window-height="1013"
   id="namedview865"
   showgrid="false"
   inkscape:zoom="1.6277663"
   inkscape:cx="260.17249"
   inkscape:cy="46.857498"
   inkscape:window-x="-9"
   inkscape:window-y="-9"
   inkscape:window-maximized="1"
   inkscape:current-layer="layer1" />

<g
   inkscape:groupmode="layer"
   id="layer1"
   inkscape:label="vector"><g
     id="g862"
     style="stroke:none;stroke-opacity:1;fill:#8a8a8a;fill-opacity:1">
	<path
   fill="#57B04B"
   d="M0,0.322h36.738c0,0,33.372,50.42,34.365,51.776c0.996,1.351,1.119,0,1.119,0   c-1.538-7.808-3.208-11.312-3.208-23.78V0.322h36.598v93.393H69.015c0,0-32.687-47.73-33.677-49.049c-0.984-1.318-1.113,0-1.113,0   c1.257,6.445,2.373,7.523,2.373,18.703v30.346H0V0.322z"
   id="path852"
   style="stroke:none;stroke-opacity:1;fill:#8a8a8a;fill-opacity:1" />
	<path
   fill="#57B04B"
   d="M163.307,59.897l4.986-18.955c1.081-3.829,1.822-9.354,1.822-9.354c0.155-0.844,1.324-0.844,1.529,0.041   c0.237,1.307,0.826,5.273,1.939,9.231l5.092,19.037H163.307z M156.457,82.072h28.928l3.489,11.643h40.506L191.807,0.322h-42.328   l-36.601,93.393h40.509L156.457,82.072z"
   id="path854"
   style="stroke:none;stroke-opacity:1;fill:#8a8a8a;fill-opacity:1" />
	<path
   fill="#57B04B"
   d="M325.796,0.322l-40.79,93.393h-32.414L211.805,0.322h39.955l13.969,42.486   c1.529,4.582,2.651,14.646,2.651,14.646c0.261,0.794,1.204,0.735,1.351,0c0,0,1.119-10.063,2.657-14.646l13.453-42.486H325.796z"
   id="path856"
   style="stroke:none;stroke-opacity:1;fill:#8a8a8a;fill-opacity:1" />
	<path
   fill="#57B04B"
   d="M333.756,0.322h70.834V25.84h-32.276v8.912h29.481v24.281h-29.481v9.164h33.396v25.518h-71.953V0.322z"
   id="path858"
   style="stroke:none;stroke-opacity:1;fill:#8a8a8a;fill-opacity:1" />
	<path
   fill="#57B04B"
   d="M458.725,25.518h2.944c6.56,0,12.29,0.864,12.29,8.051c0,6.932-6.293,7.799-12.577,7.799h-2.657V25.518z    M421.289,93.393h37.436V63.416c0,0,0.24-1.063,0.958,0l16.515,29.977h44.147l-22.919-30.352c-2.098-2.719-5.637-5.048-6.422-5.566   c-0.785-0.527,0-0.75,0-0.75c14.256-4.21,20.402-10.148,20.402-24.275C511.406,8.918,491.273,0,467.528,0h-46.239V93.393z"
   id="path860"
   style="stroke:none;stroke-opacity:1;fill:#8a8a8a;fill-opacity:1" />
</g></g></svg>
