<svg width="518" height="191" viewBox="0 0 518 191" fill="none" xmlns="http://www.w3.org/2000/svg">
<path fill-rule="evenodd" clip-rule="evenodd" d="M51.0051 1.08281C46.8701 3.62117 41.8663 11.0518 39.2839 18.4886C37.7604 22.8753 36.9822 27.8565 37.8205 27.8565C40.2819 27.8565 46.5112 21.0208 49.3837 15.168C51.529 10.7966 53.4776 4.51667 53.4904 1.93292C53.5002 -0.115641 53.1517 -0.235108 51.0051 1.08281ZM153.605 2.61004C154.13 8.50961 158.122 17.4627 162.541 22.6493C164.951 25.4767 167.958 27.8565 169.123 27.8565C169.914 27.8565 169.549 24.3036 168.346 20.2892C165.63 11.2319 158.998 1.63951 154.555 0.344529L153.373 0L153.605 2.61004ZM29.1537 8.14501C26.3828 11.9822 24.9783 18.3907 25.0178 27.0159C25.0458 33.1444 25.5581 36.8941 26.8479 40.4149C27.6643 42.6436 27.7051 42.679 28.4965 41.8485C29.6475 40.6409 31.1813 36.9471 31.978 33.4641C32.862 29.6001 32.95 18.8255 32.1331 14.4766C31.5883 11.5755 30.2677 7.30876 29.9146 7.30876C29.8282 7.30876 29.4862 7.68484 29.1537 8.14501ZM176.41 8.74232C176.074 9.66219 175.465 11.8125 175.056 13.5209C174.043 17.7537 174.019 29.172 175.013 33.4641C175.824 36.9643 177.358 40.6472 178.508 41.8537C179.304 42.6885 179.34 42.6642 179.967 40.8436C181.44 36.5711 181.974 32.8648 181.977 26.9007C181.982 18.4083 180.665 12.0777 178.183 8.66682L177.021 7.06984L176.41 8.74232ZM47.6363 29.3302C40.5605 31.2669 31.2607 41.9818 27.9927 51.9618C27.6125 53.1225 27.6619 53.1827 28.989 53.1827C33.083 53.1827 40.3267 47.0924 45.477 39.3206C48.2071 35.2006 50.7105 28.6698 49.4866 28.86C49.3166 28.8867 48.4841 29.0979 47.6363 29.3302ZM157.205 29.6484C157.206 31.0084 159.424 36.0019 161.397 39.086C166.235 46.6461 173.93 53.1827 177.992 53.1827C179.331 53.1827 179.287 52.6159 177.639 48.6297C174.238 40.4044 166.21 31.685 160.094 29.5762C157.327 28.622 157.205 28.6248 157.205 29.6484ZM188.998 30.5812C184.872 36.6685 181.962 50.1402 183.079 57.9889C183.492 60.8928 184.849 65.129 185.366 65.129C185.698 65.129 188.77 59.0627 189.613 56.7451C192.297 49.3627 193.371 38.839 191.999 33.3613C191.609 31.8021 191.051 30.1301 190.759 29.646C190.263 28.8246 190.146 28.8862 188.998 30.5812ZM16.139 29.8873C14.9608 31.5507 14.3065 36.174 14.5044 41.4356C14.7789 48.7343 16.3312 55.1643 19.1971 60.8709C20.9947 64.4505 21.6593 65.075 22.4062 63.889C25.8507 58.4195 23.9536 41.2392 18.9033 32.1667C17.2485 29.193 16.8584 28.8714 16.139 29.8873ZM2.7194 49.1587C2.28276 50.4799 2.4482 53.844 3.0906 56.7078C5.00998 65.2652 11.4517 76.3017 17.0411 80.6095C18.2703 81.5566 19.3831 82.3317 19.5144 82.3317C20.0259 82.3317 19.7189 75.6786 19.0938 73.22C17.2806 66.0862 14.3279 60.3438 9.40184 54.3687C5.796 49.9954 3.12969 47.9167 2.7194 49.1587ZM202.243 49.626C196.394 54.1527 189.716 65.1534 187.833 73.3634C187.516 74.7477 187.254 77.3253 187.251 79.0914C187.246 82.865 187.341 82.8793 190.993 79.6457C195.654 75.5209 200.383 67.8074 202.901 60.2267C204.242 56.1884 204.928 50.5774 204.252 49.1749C203.901 48.4457 203.714 48.4878 202.243 49.626ZM33.3838 57.2019C29.2907 60.7084 25.3787 68.7846 23.6416 77.3143C23.0021 80.4562 22.8387 86.6324 23.3955 86.6324C23.5877 86.6324 24.4964 86.0007 25.4141 85.229C28.9961 82.2156 32.9286 73.9143 34.5962 65.8458C35.4139 61.8877 35.6534 56.7718 35.0414 56.3327C34.8488 56.1946 34.1027 56.586 33.3838 57.2019ZM171.611 59.0364C171.618 66.413 175.146 77.1069 179.488 82.9099C180.558 84.3411 183.103 86.6324 183.623 86.6324C184.174 86.6324 183.983 80.384 183.335 77.1924C181.734 69.3054 177.79 60.9053 174.189 57.7132C173.157 56.7981 172.154 56.0498 171.961 56.0498C171.767 56.0498 171.61 57.394 171.611 59.0364ZM0.411531 76.8183C0.411531 81.0702 3.56427 87.7439 8.40099 93.7314C12.2574 98.5056 19.6646 104.313 21.8972 104.313C22.6729 104.313 22.7231 104.118 22.4795 102.043C22.1325 99.09 19.8444 93.5293 17.5571 90.082C13.8916 84.5571 7.89439 78.6628 3.54698 76.3122C0.731697 74.7903 0.411531 74.8419 0.411531 76.8183ZM202.735 76.7853C195.128 81.3889 186.984 91.8606 185.011 99.5722C183.763 104.455 184.211 105.132 187.535 103.381C194.572 99.6706 203.171 89.1937 205.707 81.2384C206.741 77.9952 206.878 75.1639 206.001 75.1639C205.678 75.1639 204.208 75.8936 202.735 76.7853ZM28.6269 89.7418C26.3413 96.0934 26.8964 107.212 30.0088 117.425C31.3039 121.672 34.1554 127.25 35.0328 127.25C35.8559 127.25 36.7448 122.304 36.9221 116.737C37.076 111.9 36.9477 109.835 36.2468 105.881C35.2402 100.202 33.5097 94.7076 31.6908 91.4167C29.7261 87.8614 29.373 87.6684 28.6269 89.7418ZM176.419 89.5769C174.577 92.381 172.505 97.7033 171.322 102.667C170.308 106.923 170.189 108.217 170.179 115.065C170.169 122.004 170.254 122.926 171.096 125.045L172.023 127.38L173.459 125.284C178.262 118.274 181.07 102.423 179.2 92.876C178.848 91.0812 178.322 89.2338 178.031 88.7713C177.543 87.9962 177.416 88.0597 176.419 89.5769ZM0 100.495C0 101.929 2.991 107.156 5.21492 109.61C9.79772 114.665 16.9917 119.423 22.5437 121.072C28.2878 122.778 28.9491 122.289 26.7952 117.932C24.5733 113.436 18.7798 107.692 12.9632 104.218C7.88863 101.187 0 98.9218 0 100.495ZM201.634 100.735C196.493 102.185 188.259 107.611 184.107 112.285C181.91 114.758 180.157 117.649 179.139 120.477L178.543 122.133L180.94 121.873C187.587 121.153 197.951 114.672 203.11 108.01C204.883 105.719 207 101.637 207 100.506C207 99.8393 204.418 99.9497 201.634 100.735ZM40.7016 120.649C40.4436 127.806 44.4313 138.446 50.352 146.398C52.9504 149.888 57.153 153.963 58.188 153.998C58.8864 154.021 58.0925 147.075 56.9875 143.497C54.2031 134.478 47.475 123.906 42.4482 120.649L40.7416 119.543L40.7016 120.649ZM164.05 120.869C158.74 124.903 152.357 135.417 149.587 144.692C148.867 147.103 148.226 154.01 148.722 154.01C148.87 154.01 149.774 153.436 150.731 152.734C158.002 147.407 166.258 131.332 166.258 122.507C166.258 120.91 166.12 119.617 165.95 119.632C165.78 119.648 164.925 120.204 164.05 120.869ZM16.4612 124.237C16.4612 125.428 19.0242 130.38 20.7062 132.438C25.612 138.442 35.7254 144.493 42.7441 145.625L44.5408 145.915L44.2593 144.586C42.5194 136.381 28.9928 125.42 18.416 123.646C16.6641 123.353 16.4612 123.414 16.4612 124.237ZM185.6 124.357C175.964 127.399 166.577 135.167 163.221 142.876C162.124 145.395 162.309 145.976 164.098 145.64C174.259 143.735 185.17 135.957 189.237 127.72C191.477 123.183 190.928 122.676 185.6 124.357ZM62.1412 144.477C62.1412 146.872 67.0499 153.559 72.0842 158.022C76.7686 162.175 85.0655 166.434 88.4729 166.434C90.0536 166.434 90.1594 166.354 89.8964 165.359C89.4738 163.759 86.335 158.827 84.2988 156.563C79.9316 151.707 72.471 146.577 67.1075 144.74C64.5548 143.866 62.1412 143.738 62.1412 144.477ZM140.949 144.305C136.082 145.599 128.049 150.891 123.331 155.914C120.851 158.554 117.598 163.487 117.104 165.359C116.845 166.338 116.954 166.434 118.327 166.434C123.686 166.434 134.34 159.644 140.301 152.429C142.505 149.762 144.838 145.733 144.852 144.572C144.859 143.979 142.724 143.832 140.949 144.305ZM26.1322 148.096C24.7017 148.514 21.2012 149.83 21.0169 150.019C20.6325 150.411 24.2001 153.713 26.4063 155.006C30.6434 157.489 34.1822 158.373 41.0239 158.656C46.1186 158.867 47.8405 158.759 50.3413 158.075C54.6809 156.889 54.7871 156.763 53.129 154.776C51.5031 152.828 47.6359 150.578 43.4828 149.162C41.135 148.362 39.1555 148.127 33.7455 148.007C30.0109 147.923 26.5849 147.963 26.1322 148.096ZM167.493 148.129C164.761 148.662 160.211 150.34 158.025 151.622C155.604 153.041 152.678 155.664 152.678 156.415C152.678 156.632 153.743 157.198 155.044 157.674C158.467 158.926 170.175 158.918 174.283 157.661C178.022 156.517 182.5 154.034 184.56 151.964L186.193 150.321L184.971 149.595C182.812 148.314 179.519 147.796 173.954 147.863C170.966 147.898 168.059 148.018 167.493 148.129ZM54.8645 160.269C49.6746 161.275 40.9222 165.471 40.4535 167.177C40.295 167.754 42.5478 169.104 45.2684 170.062C49.7117 171.628 57.2402 171.318 63.6276 169.306C66.9581 168.257 72.4718 165.31 73.4488 164.057C74.0599 163.272 73.9591 163.136 71.929 161.994C70.7331 161.322 68.6557 160.54 67.3124 160.258C64.4865 159.663 57.9596 159.669 54.8645 160.269ZM138.686 160.51C137.441 160.897 135.629 161.659 134.659 162.202C132.58 163.368 132.72 163.77 135.956 165.919C142.694 170.394 154.476 172.31 161.526 170.078C164.281 169.206 166.717 167.799 166.547 167.177C166.291 166.249 162.051 163.609 158.784 162.346C152.205 159.802 143.518 159.009 138.686 160.51ZM78.3374 168.891C72.9208 169.417 67.6334 171.7 62.3469 175.795C60.1901 177.466 57.2028 180.423 57.2028 180.886C57.2028 181.693 61.4033 182.681 64.8367 182.681C69.9664 182.681 75.4529 181.024 81.2773 177.717C83.7671 176.303 86.533 174.876 87.424 174.546C89.6051 173.739 93.3854 173.854 95.3282 174.786C97.0842 175.628 100.823 178.444 100.824 178.925C100.825 179.336 93.601 186.032 91.7228 187.361C90.9039 187.941 89.9088 188.415 89.5121 188.415C88.887 188.415 88.866 188.521 89.3549 189.206C89.6652 189.641 90.4993 190.278 91.2084 190.622C93.5891 191.778 95.8007 190.411 100.758 184.719C102.193 183.073 103.491 181.725 103.643 181.725C103.795 181.725 105.212 183.262 106.793 185.14C110.543 189.597 112.31 190.935 114.445 190.935C115.713 190.935 116.393 190.625 117.211 189.675C118.201 188.526 118.225 188.415 117.483 188.413C117.035 188.412 116.067 187.986 115.332 187.465C113.464 186.143 106.175 179.276 106.175 178.839C106.175 178.345 109.737 175.732 111.731 174.765C112.957 174.17 114.192 174.025 116.664 174.185C119.587 174.373 120.395 174.652 123.781 176.64C130.929 180.837 136.481 182.681 141.969 182.681C146.082 182.681 150.005 181.579 149.498 180.567C147.906 177.386 137.818 170.772 132.719 169.567C128.888 168.661 123.012 168.358 119.961 168.909C116.029 169.619 110.682 171.912 106.95 174.49L103.5 176.874L102.06 175.867C93.1685 169.653 87.5359 167.996 78.3374 168.891Z" fill="#F71503"/>
<path d="M241.64 10.28V14.64H233.12V38H228.04V14.64H219.52V10.28H241.64ZM262.564 10.28H267.604V38H262.564V25.72H250.524V38H245.484V10.28H250.524V21.36H262.564V10.28ZM274.234 38V10.28H292.034V14.56H279.274V21.4H290.634V25.6H279.274V33.72H292.994V38H274.234Z" fill="#22252C"/>
<path d="M252.96 51.88C265.44 51.88 275 54.12 281.64 58.6C288.28 63 291.6 69.88 291.6 79.24C291.6 85.08 290.24 89.84 287.52 93.52C284.88 97.12 281.04 99.96 276 102.04C277.68 104.12 279.44 106.52 281.28 109.24C283.12 111.88 284.92 114.68 286.68 117.64C288.52 120.52 290.28 123.56 291.96 126.76C293.64 129.88 295.2 132.96 296.64 136H275.64C274.12 133.28 272.56 130.52 270.96 127.72C269.44 124.92 267.84 122.2 266.16 119.56C264.56 116.92 262.96 114.44 261.36 112.12C259.76 109.72 258.16 107.56 256.56 105.64H247.32V136H228.6V54.04C232.68 53.24 236.88 52.68 241.2 52.36C245.6 52.04 249.52 51.88 252.96 51.88ZM254.04 67.84C252.68 67.84 251.44 67.88 250.32 67.96C249.28 68.04 248.28 68.12 247.32 68.2V90.76H252.6C259.64 90.76 264.68 89.88 267.72 88.12C270.76 86.36 272.28 83.36 272.28 79.12C272.28 75.04 270.72 72.16 267.6 70.48C264.56 68.72 260.04 67.84 254.04 67.84ZM360.869 136C359.989 133.12 358.989 130.16 357.869 127.12C356.829 124.08 355.789 121.04 354.749 118H322.349C321.309 121.04 320.229 124.08 319.109 127.12C318.069 130.16 317.109 133.12 316.229 136H296.789C299.909 127.04 302.869 118.76 305.669 111.16C308.469 103.56 311.189 96.4 313.829 89.68C316.549 82.96 319.189 76.6 321.749 70.6C324.389 64.52 327.109 58.6 329.909 52.84H347.789C350.509 58.6 353.189 64.52 355.829 70.6C358.469 76.6 361.109 82.96 363.749 89.68C366.469 96.4 369.229 103.56 372.029 111.16C374.829 118.76 377.789 127.04 380.909 136H360.869ZM338.429 71.68C338.029 72.88 337.429 74.52 336.629 76.6C335.829 78.68 334.909 81.08 333.869 83.8C332.829 86.52 331.669 89.52 330.389 92.8C329.189 96.08 327.949 99.52 326.669 103.12H350.309C349.029 99.52 347.789 96.08 346.589 92.8C345.389 89.52 344.229 86.52 343.109 83.8C342.069 81.08 341.149 78.68 340.349 76.6C339.549 74.52 338.909 72.88 338.429 71.68ZM414.65 137.68C408.81 137.68 403.77 136.88 399.53 135.28C395.29 133.6 391.77 131.32 388.97 128.44C386.25 125.48 384.21 122 382.85 118C381.57 113.92 380.93 109.44 380.93 104.56V52.84H399.65V103C399.65 106.36 400.01 109.24 400.73 111.64C401.53 113.96 402.57 115.88 403.85 117.4C405.21 118.84 406.81 119.88 408.65 120.52C410.57 121.16 412.65 121.48 414.89 121.48C419.45 121.48 423.13 120.08 425.93 117.28C428.81 114.48 430.25 109.72 430.25 103V52.84H448.97V104.56C448.97 109.44 448.29 113.92 446.93 118C445.57 122.08 443.49 125.6 440.69 128.56C437.89 131.44 434.33 133.68 430.01 135.28C425.69 136.88 420.57 137.68 414.65 137.68ZM515.333 119.92V136H459.773V52.84H478.493V119.92H515.333Z" fill="#F71503"/>
<path d="M243.435 183C243.015 181.77 242.58 180.555 242.13 179.355C241.68 178.155 241.245 176.925 240.825 175.665H227.685C227.265 176.925 226.83 178.17 226.38 179.4C225.96 180.6 225.54 181.8 225.12 183H219.225C220.395 179.67 221.505 176.595 222.555 173.775C223.605 170.955 224.625 168.285 225.615 165.765C226.635 163.245 227.64 160.845 228.63 158.565C229.62 156.285 230.64 154.035 231.69 151.815H237.045C238.095 154.035 239.115 156.285 240.105 158.565C241.095 160.845 242.085 163.245 243.075 165.765C244.095 168.285 245.13 170.955 246.18 173.775C247.26 176.595 248.385 179.67 249.555 183H243.435ZM234.255 157.845C233.565 159.435 232.77 161.37 231.87 163.65C231 165.93 230.085 168.405 229.125 171.075H239.385C238.425 168.405 237.495 165.915 236.595 163.605C235.695 161.295 234.915 159.375 234.255 157.845ZM270.524 155.325C271.004 156.945 271.514 158.64 272.054 160.41C272.594 162.15 273.149 163.905 273.719 165.675C274.319 167.415 274.904 169.14 275.474 170.85C276.074 172.53 276.644 174.12 277.184 175.62C277.634 174 278.069 172.245 278.489 170.355C278.909 168.435 279.329 166.455 279.749 164.415C280.169 162.345 280.574 160.245 280.964 158.115C281.384 155.985 281.774 153.885 282.134 151.815H287.984C286.934 157.455 285.764 162.885 284.474 168.105C283.184 173.295 281.744 178.26 280.154 183H274.754C272.414 176.94 270.149 170.325 267.959 163.155C266.849 166.785 265.724 170.235 264.584 173.505C263.444 176.775 262.304 179.94 261.164 183H255.764C254.144 178.26 252.689 173.295 251.399 168.105C250.139 162.885 248.984 157.455 247.934 151.815H254.009C254.369 153.855 254.744 155.94 255.134 158.07C255.554 160.2 255.974 162.3 256.394 164.37C256.844 166.41 257.294 168.39 257.744 170.31C258.194 172.23 258.644 174 259.094 175.62C259.664 174.09 260.234 172.485 260.804 170.805C261.404 169.095 261.989 167.37 262.559 165.63C263.129 163.86 263.669 162.105 264.179 160.365C264.719 158.625 265.214 156.945 265.664 155.325H270.524ZM310.522 183C310.102 181.77 309.667 180.555 309.217 179.355C308.767 178.155 308.332 176.925 307.912 175.665H294.772C294.352 176.925 293.917 178.17 293.467 179.4C293.047 180.6 292.627 181.8 292.207 183H286.312C287.482 179.67 288.592 176.595 289.642 173.775C290.692 170.955 291.712 168.285 292.702 165.765C293.722 163.245 294.727 160.845 295.717 158.565C296.707 156.285 297.727 154.035 298.777 151.815H304.132C305.182 154.035 306.202 156.285 307.192 158.565C308.182 160.845 309.172 163.245 310.162 165.765C311.182 168.285 312.217 170.955 313.267 173.775C314.347 176.595 315.472 179.67 316.642 183H310.522ZM301.342 157.845C300.652 159.435 299.857 161.37 298.957 163.65C298.087 165.93 297.172 168.405 296.212 171.075H306.472C305.512 168.405 304.582 165.915 303.682 163.605C302.782 161.295 302.002 159.375 301.342 157.845ZM326.929 151.5C331.429 151.5 334.864 152.325 337.234 153.975C339.634 155.625 340.834 158.145 340.834 161.535C340.834 165.765 338.749 168.63 334.579 170.13C335.149 170.82 335.794 171.66 336.514 172.65C337.234 173.64 337.969 174.72 338.719 175.89C339.469 177.03 340.189 178.215 340.879 179.445C341.569 180.645 342.184 181.83 342.724 183H336.379C335.809 181.92 335.194 180.84 334.534 179.76C333.874 178.65 333.199 177.585 332.509 176.565C331.849 175.515 331.189 174.54 330.529 173.64C329.869 172.71 329.254 171.885 328.684 171.165C328.264 171.195 327.904 171.21 327.604 171.21C327.304 171.21 327.019 171.21 326.749 171.21H324.004V183H318.334V152.265C319.714 151.965 321.184 151.77 322.744 151.68C324.304 151.56 325.699 151.5 326.929 151.5ZM327.334 156.405C326.134 156.405 325.024 156.45 324.004 156.54V166.62H326.479C327.859 166.62 329.074 166.545 330.124 166.395C331.174 166.245 332.044 165.975 332.734 165.585C333.454 165.195 333.994 164.67 334.354 164.01C334.714 163.35 334.894 162.51 334.894 161.49C334.894 160.53 334.714 159.72 334.354 159.06C333.994 158.4 333.469 157.875 332.779 157.485C332.119 157.095 331.324 156.825 330.394 156.675C329.464 156.495 328.444 156.405 327.334 156.405ZM350.538 178.32C350.868 178.35 351.303 178.38 351.843 178.41C352.383 178.41 353.118 178.41 354.048 178.41C357.858 178.41 360.693 177.45 362.553 175.53C364.443 173.58 365.388 170.865 365.388 167.385C365.388 163.845 364.473 161.13 362.643 159.24C360.813 157.35 357.978 156.405 354.138 156.405C352.458 156.405 351.258 156.45 350.538 156.54V178.32ZM371.328 167.385C371.328 170.085 370.908 172.44 370.068 174.45C369.228 176.43 368.028 178.095 366.468 179.445C364.938 180.765 363.078 181.755 360.888 182.415C358.728 183.045 356.328 183.36 353.688 183.36C352.428 183.36 351.003 183.3 349.413 183.18C347.823 183.09 346.308 182.88 344.868 182.55V152.265C346.308 151.935 347.838 151.725 349.458 151.635C351.078 151.545 352.518 151.5 353.778 151.5C356.388 151.5 358.773 151.815 360.933 152.445C363.093 153.045 364.938 154.005 366.468 155.325C368.028 156.615 369.228 158.265 370.068 160.275C370.908 162.255 371.328 164.625 371.328 167.385ZM382.434 178.77C384.474 178.77 385.959 178.425 386.889 177.735C387.819 177.045 388.284 176.07 388.284 174.81C388.284 174.06 388.119 173.415 387.789 172.875C387.489 172.335 387.039 171.855 386.439 171.435C385.869 170.985 385.164 170.58 384.324 170.22C383.484 169.83 382.524 169.455 381.444 169.095C380.364 168.705 379.314 168.285 378.294 167.835C377.304 167.355 376.419 166.77 375.639 166.08C374.889 165.39 374.274 164.565 373.794 163.605C373.344 162.645 373.119 161.49 373.119 160.14C373.119 157.32 374.094 155.115 376.044 153.525C377.994 151.905 380.649 151.095 384.009 151.095C385.959 151.095 387.684 151.32 389.184 151.77C390.714 152.19 391.914 152.655 392.784 153.165L391.029 157.755C390.009 157.185 388.884 156.75 387.654 156.45C386.454 156.15 385.209 156 383.919 156C382.389 156 381.189 156.315 380.319 156.945C379.479 157.575 379.059 158.46 379.059 159.6C379.059 160.29 379.194 160.89 379.464 161.4C379.764 161.88 380.169 162.315 380.679 162.705C381.219 163.095 381.834 163.455 382.524 163.785C383.244 164.115 384.024 164.43 384.864 164.73C386.334 165.27 387.639 165.825 388.779 166.395C389.949 166.935 390.924 167.595 391.704 168.375C392.514 169.125 393.129 170.025 393.549 171.075C393.969 172.095 394.179 173.34 394.179 174.81C394.179 177.63 393.174 179.82 391.164 181.38C389.184 182.91 386.274 183.675 382.434 183.675C381.144 183.675 379.959 183.585 378.879 183.405C377.829 183.255 376.884 183.06 376.044 182.82C375.234 182.58 374.529 182.34 373.929 182.1C373.329 181.83 372.849 181.59 372.489 181.38L374.154 176.745C374.964 177.195 376.059 177.645 377.439 178.095C378.819 178.545 380.484 178.77 382.434 178.77Z" fill="#F71503"/>
<path fill-rule="evenodd" clip-rule="evenodd" d="M103.591 12.1413C113.438 12.791 120.851 14.3676 125.837 16.8726C129.15 18.5373 130.426 19.5636 130.648 20.7425C130.804 21.57 131.131 21.9228 132.561 22.8017C135.965 24.8951 139.216 28.4599 141.065 32.1282C142.727 35.4254 143.382 38.7044 144.159 47.615C144.499 51.515 144.381 52.0175 142.689 53.8453C142.057 54.5286 141.54 55.3255 141.54 55.6163C141.54 57.0516 143.248 59.4091 147.368 63.6579C151.969 68.4034 152.837 69.7712 152.475 71.6971C152.242 72.9334 151.432 73.6929 149.318 74.6572C147.316 75.5699 147.224 76.018 148.731 77.5191C149.745 78.5294 149.9 78.5879 151.13 78.4271C155.498 80.7946 150.845 85.3715 150.845 85.3822C150.845 85.7929 151.098 86.2089 151.469 86.4064L152.008 88.4115V89.8207C152.008 91.6444 151.202 92.7558 149.879 92.7576C148.788 92.7587 147.281 93.6071 146.641 94.5795C146.231 95.2026 146.23 95.3964 146.628 96.52C147.199 98.1322 147.48 100.55 147.243 101.809C146.963 103.294 145.265 105.072 143.195 106.046C140.107 107.499 138.863 107.616 132.194 107.084C123.535 106.392 119.951 106.388 117.987 107.069C115.718 107.855 113.72 109.98 112.038 113.395C110.391 116.738 109.843 118.866 109.843 121.905C109.843 123.345 109.597 125.293 109.221 126.841C108.763 128.723 108.598 130.317 108.597 132.875C108.596 136.93 109.102 139.174 112.405 149.768C113.513 153.324 114.319 156.126 114.195 155.996C114.071 155.865 112.207 153.406 110.053 150.531C100.455 137.721 88.9471 125.055 81.7836 119.416C78.1009 116.517 69.4619 110.904 65.9706 109.142L64.553 108.426L65.9427 105.588C67.6837 102.033 69.2607 97.5399 69.8452 94.4712C70.4361 91.3672 70.4384 87.8765 69.8496 87.0391C69.5786 86.6535 69.4753 86.1281 69.5849 85.6927C69.753 85.0256 68.6858 82.3715 67.9472 81.6189L65.6414 78.249L63.2144 75.3631C59.5489 71.0046 57.2609 65.9549 55.6953 58.7687C54.7685 54.515 54.7682 46.129 55.6944 41.8779C57.5826 33.2121 60.8785 27.0145 66.6182 21.336C69.614 18.3725 70.1098 18.0078 73.2022 16.4923C78.208 14.0394 82.8456 12.8889 90.3592 12.2363C93.4652 11.9666 100.208 11.9179 103.591 12.1413Z" fill="#22252C"/>
</svg>
