<svg width="300" height="300" viewBox="0 0 300 300" fill="none" xmlns="http://www.w3.org/2000/svg">
<rect width="300" height="300" rx="150" fill="white"/>
<path fill-rule="evenodd" clip-rule="evenodd" d="M99.0051 63.0828C94.8701 65.6212 89.8663 73.0518 87.2839 80.4886C85.7604 84.8753 84.9822 89.8565 85.8205 89.8565C88.2819 89.8565 94.5112 83.0208 97.3837 77.168C99.529 72.7966 101.478 66.5167 101.49 63.9329C101.5 61.8844 101.152 61.7649 99.0051 63.0828ZM201.605 64.61C202.13 70.5096 206.122 79.4627 210.541 84.6493C212.951 87.4767 215.958 89.8565 217.123 89.8565C217.914 89.8565 217.549 86.3036 216.346 82.2892C213.63 73.2319 206.998 63.6395 202.555 62.3445L201.373 62L201.605 64.61ZM77.1537 70.145C74.3828 73.9822 72.9783 80.3907 73.0178 89.0159C73.0458 95.1444 73.5581 98.8941 74.8479 102.415C75.6643 104.644 75.7051 104.679 76.4964 103.848C77.6475 102.641 79.1813 98.9471 79.978 95.4641C80.862 91.6001 80.95 80.8255 80.1331 76.4766C79.5883 73.5755 78.2677 69.3088 77.9146 69.3088C77.8282 69.3088 77.4862 69.6848 77.1537 70.145ZM224.41 70.7423C224.074 71.6622 223.465 73.8125 223.056 75.5209C222.043 79.7537 222.019 91.172 223.013 95.4641C223.824 98.9643 225.358 102.647 226.509 103.854C227.304 104.689 227.34 104.664 227.967 102.844C229.44 98.5711 229.974 94.8648 229.977 88.9007C229.982 80.4083 228.665 74.0777 226.183 70.6668L225.021 69.0698L224.41 70.7423ZM95.6363 91.3302C88.5605 93.2669 79.2607 103.982 75.9927 113.962C75.6125 115.122 75.6619 115.183 76.989 115.183C81.083 115.183 88.3267 109.092 93.477 101.321C96.2071 97.2006 98.7105 90.6698 97.4866 90.86C97.3166 90.8867 96.4841 91.0979 95.6363 91.3302ZM205.205 91.6484C205.206 93.0084 207.424 98.0019 209.397 101.086C214.235 108.646 221.93 115.183 225.992 115.183C227.331 115.183 227.287 114.616 225.639 110.63C222.238 102.404 214.21 93.685 208.094 91.5762C205.327 90.622 205.205 90.6248 205.205 91.6484ZM236.998 92.5812C232.872 98.6685 229.962 112.14 231.079 119.989C231.492 122.893 232.849 127.129 233.366 127.129C233.698 127.129 236.77 121.063 237.613 118.745C240.297 111.363 241.371 100.839 239.999 95.3613C239.609 93.8021 239.051 92.1301 238.759 91.646C238.263 90.8246 238.146 90.8862 236.998 92.5812ZM64.139 91.8873C62.9608 93.5507 62.3065 98.174 62.5044 103.436C62.7789 110.734 64.3312 117.164 67.1971 122.871C68.9947 126.45 69.6593 127.075 70.4062 125.889C73.8507 120.419 71.9536 103.239 66.9033 94.1667C65.2485 91.193 64.8584 90.8714 64.139 91.8873ZM50.7194 111.159C50.2828 112.48 50.4482 115.844 51.0906 118.708C53.01 127.265 59.4517 138.302 65.0411 142.61C66.2703 143.557 67.3831 144.332 67.5144 144.332C68.0259 144.332 67.7189 137.679 67.0938 135.22C65.2806 128.086 62.3279 122.344 57.4018 116.369C53.796 111.995 51.1297 109.917 50.7194 111.159ZM250.243 111.626C244.394 116.153 237.716 127.153 235.833 135.363C235.516 136.748 235.254 139.325 235.251 141.091C235.246 144.865 235.341 144.879 238.994 141.646C243.654 137.521 248.383 129.807 250.901 122.227C252.242 118.188 252.928 112.577 252.252 111.175C251.901 110.446 251.714 110.488 250.243 111.626ZM81.3838 119.202C77.2907 122.708 73.3787 130.785 71.6416 139.314C71.0021 142.456 70.8387 148.632 71.3955 148.632C71.5877 148.632 72.4964 148.001 73.4141 147.229C76.9961 144.216 80.9286 135.914 82.5962 127.846C83.4139 123.888 83.6534 118.772 83.0414 118.333C82.8488 118.195 82.1027 118.586 81.3838 119.202ZM219.611 121.036C219.618 128.413 223.146 139.107 227.488 144.91C228.558 146.341 231.103 148.632 231.623 148.632C232.174 148.632 231.983 142.384 231.335 139.192C229.734 131.305 225.79 122.905 222.189 119.713C221.157 118.798 220.154 118.05 219.961 118.05C219.767 118.05 219.61 119.394 219.611 121.036ZM48.4115 138.818C48.4115 143.07 51.5643 149.744 56.401 155.731C60.2574 160.506 67.6646 166.313 69.8971 166.313C70.6729 166.313 70.7231 166.118 70.4795 164.043C70.1325 161.09 67.8444 155.529 65.5571 152.082C61.8916 146.557 55.8944 140.663 51.547 138.312C48.7317 136.79 48.4115 136.842 48.4115 138.818ZM250.735 138.785C243.128 143.389 234.984 153.861 233.011 161.572C231.763 166.455 232.211 167.133 235.535 165.381C242.572 161.671 251.171 151.194 253.707 143.238C254.741 139.995 254.878 137.164 254.001 137.164C253.678 137.164 252.208 137.894 250.735 138.785ZM76.6269 151.742C74.3413 158.093 74.8964 169.212 78.0088 179.425C79.3039 183.672 82.1554 189.25 83.0328 189.25C83.8559 189.25 84.7448 184.304 84.9221 178.737C85.076 173.9 84.9476 171.835 84.2468 167.881C83.2402 162.202 81.5097 156.708 79.6907 153.417C77.7261 149.861 77.373 149.668 76.6269 151.742ZM224.419 151.577C222.577 154.381 220.505 159.703 219.322 164.667C218.308 168.923 218.189 170.217 218.179 177.065C218.169 184.004 218.254 184.926 219.096 187.045L220.023 189.38L221.459 187.284C226.262 180.274 229.07 164.423 227.2 154.876C226.848 153.081 226.322 151.234 226.031 150.771C225.543 149.996 225.416 150.06 224.419 151.577ZM48 162.495C48 163.929 50.991 169.156 53.2149 171.61C57.7977 176.665 64.9917 181.423 70.5437 183.072C76.2878 184.778 76.9491 184.289 74.7952 179.932C72.5733 175.436 66.7798 169.692 60.9632 166.218C55.8886 163.187 48 160.922 48 162.495ZM249.634 162.735C244.493 164.185 236.259 169.611 232.107 174.285C229.91 176.758 228.157 179.649 227.139 182.477L226.543 184.133L228.94 183.873C235.587 183.153 245.951 176.672 251.11 170.01C252.883 167.719 255 163.637 255 162.506C255 161.839 252.418 161.95 249.634 162.735ZM88.7016 182.649C88.4436 189.806 92.4313 200.446 98.352 208.398C100.95 211.888 105.153 215.963 106.188 215.998C106.886 216.021 106.093 209.075 104.988 205.497C102.203 196.478 95.475 185.906 90.4482 182.649L88.7416 181.543L88.7016 182.649ZM212.05 182.869C206.74 186.903 200.357 197.417 197.587 206.692C196.867 209.103 196.226 216.01 196.722 216.01C196.87 216.01 197.774 215.436 198.731 214.734C206.002 209.407 214.258 193.332 214.258 184.507C214.258 182.91 214.12 181.617 213.95 181.632C213.78 181.648 212.925 182.204 212.05 182.869ZM64.4612 186.237C64.4612 187.428 67.0242 192.38 68.7062 194.438C73.612 200.442 83.7254 206.493 90.7441 207.625L92.5408 207.915L92.2593 206.586C90.5194 198.381 76.9928 187.42 66.416 185.646C64.6641 185.353 64.4612 185.414 64.4612 186.237ZM233.6 186.357C223.964 189.399 214.577 197.167 211.221 204.876C210.124 207.395 210.309 207.976 212.098 207.64C222.259 205.735 233.17 197.957 237.237 189.72C239.477 185.183 238.928 184.676 233.6 186.357ZM110.141 206.477C110.141 208.872 115.05 215.559 120.084 220.022C124.769 224.175 133.065 228.434 136.473 228.434C138.054 228.434 138.159 228.354 137.896 227.359C137.474 225.759 134.335 220.827 132.299 218.563C127.932 213.707 120.471 208.577 115.108 206.74C112.555 205.866 110.141 205.738 110.141 206.477ZM188.949 206.305C184.082 207.599 176.049 212.891 171.331 217.914C168.851 220.554 165.598 225.487 165.104 227.359C164.845 228.338 164.954 228.434 166.327 228.434C171.686 228.434 182.34 221.644 188.301 214.429C190.505 211.762 192.838 207.733 192.852 206.572C192.859 205.979 190.724 205.832 188.949 206.305ZM74.1322 210.096C72.7017 210.514 69.2012 211.83 69.0169 212.019C68.6325 212.411 72.2001 215.713 74.4063 217.006C78.6434 219.489 82.1822 220.373 89.0239 220.656C94.1186 220.867 95.8405 220.759 98.3413 220.075C102.681 218.889 102.787 218.763 101.129 216.776C99.5031 214.828 95.6359 212.578 91.4828 211.162C89.135 210.362 87.1555 210.127 81.7455 210.007C78.0109 209.923 74.5849 209.963 74.1322 210.096ZM215.493 210.129C212.761 210.662 208.211 212.34 206.025 213.622C203.604 215.041 200.678 217.664 200.678 218.415C200.678 218.632 201.743 219.198 203.044 219.674C206.467 220.926 218.175 220.918 222.283 219.661C226.022 218.517 230.5 216.034 232.56 213.964L234.193 212.321L232.971 211.595C230.812 210.314 227.519 209.796 221.954 209.863C218.966 209.898 216.059 210.018 215.493 210.129ZM102.864 222.269C97.6746 223.275 88.9222 227.471 88.4535 229.177C88.295 229.754 90.5478 231.104 93.2684 232.062C97.7117 233.628 105.24 233.318 111.628 231.306C114.958 230.257 120.472 227.31 121.449 226.057C122.06 225.272 121.959 225.136 119.929 223.994C118.733 223.322 116.656 222.54 115.312 222.258C112.486 221.663 105.96 221.669 102.864 222.269ZM186.686 222.51C185.441 222.897 183.629 223.659 182.659 224.202C180.58 225.368 180.72 225.77 183.956 227.919C190.694 232.394 202.476 234.31 209.526 232.078C212.281 231.206 214.717 229.799 214.547 229.177C214.291 228.249 210.051 225.609 206.784 224.346C200.205 221.802 191.518 221.009 186.686 222.51ZM126.337 230.891C120.921 231.417 115.633 233.7 110.347 237.795C108.19 239.466 105.203 242.423 105.203 242.886C105.203 243.693 109.403 244.681 112.837 244.681C117.966 244.681 123.453 243.024 129.277 239.717C131.767 238.303 134.533 236.876 135.424 236.546C137.605 235.739 141.385 235.854 143.328 236.786C145.084 237.628 148.823 240.444 148.824 240.925C148.825 241.336 141.601 248.032 139.723 249.361C138.904 249.941 137.909 250.415 137.512 250.415C136.887 250.415 136.866 250.521 137.355 251.206C137.665 251.641 138.499 252.278 139.208 252.622C141.589 253.778 143.801 252.411 148.758 246.719C150.193 245.073 151.491 243.725 151.643 243.725C151.795 243.725 153.212 245.262 154.793 247.14C158.543 251.597 160.31 252.935 162.445 252.935C163.713 252.935 164.393 252.625 165.211 251.675C166.201 250.526 166.225 250.415 165.483 250.413C165.035 250.412 164.067 249.986 163.332 249.465C161.464 248.143 154.175 241.276 154.175 240.839C154.175 240.345 157.737 237.732 159.731 236.765C160.957 236.17 162.192 236.025 164.664 236.185C167.587 236.373 168.395 236.652 171.781 238.64C178.929 242.837 184.481 244.681 189.969 244.681C194.082 244.681 198.005 243.579 197.498 242.567C195.906 239.386 185.818 232.772 180.719 231.567C176.888 230.661 171.012 230.358 167.961 230.909C164.029 231.619 158.682 233.912 154.95 236.49L151.5 238.874L150.06 237.867C141.169 231.653 135.536 229.996 126.337 230.891Z" fill="#F71503"/>
<path fill-rule="evenodd" clip-rule="evenodd" d="M151.591 74.1413C161.438 74.791 168.851 76.3676 173.837 78.8726C177.15 80.5373 178.426 81.5636 178.648 82.7425C178.804 83.57 179.131 83.9228 180.561 84.8017C183.965 86.8951 187.216 90.4599 189.065 94.1282C190.727 97.4254 191.382 100.704 192.159 109.615C192.499 113.515 192.381 114.018 190.689 115.845C190.057 116.529 189.54 117.325 189.54 117.616C189.54 119.052 191.248 121.409 195.368 125.658C199.969 130.403 200.837 131.771 200.475 133.697C200.242 134.933 199.432 135.693 197.318 136.657C195.316 137.57 195.224 138.018 196.731 139.519C197.745 140.529 197.9 140.588 199.13 140.427C203.498 142.795 198.845 147.371 198.845 147.382C198.845 147.793 199.098 148.209 199.469 148.406L200.008 150.411V151.821C200.008 153.644 199.202 154.756 197.879 154.758C196.788 154.759 195.281 155.607 194.641 156.58C194.231 157.203 194.23 157.396 194.628 158.52C195.199 160.132 195.48 162.55 195.243 163.809C194.963 165.294 193.265 167.072 191.195 168.046C188.107 169.499 186.863 169.616 180.194 169.084C171.535 168.392 167.951 168.388 165.987 169.069C163.718 169.855 161.72 171.98 160.038 175.395C158.391 178.738 157.843 180.866 157.843 183.905C157.843 185.345 157.597 187.293 157.221 188.841C156.763 190.723 156.598 192.317 156.597 194.875C156.596 198.93 157.102 201.174 160.405 211.768C161.513 215.324 162.319 218.126 162.195 217.996C162.071 217.865 160.207 215.406 158.053 212.531C148.455 199.721 136.947 187.055 129.784 181.416C126.101 178.517 117.462 172.904 113.971 171.142L112.553 170.426L113.943 167.588C115.684 164.033 117.261 159.54 117.845 156.471C118.436 153.367 118.438 149.876 117.85 149.039C117.579 148.654 117.475 148.128 117.585 147.693C117.753 147.026 116.686 144.371 115.947 143.619L113.641 140.249L111.214 137.363C107.549 133.005 105.261 127.955 103.695 120.769C102.769 116.515 102.768 108.129 103.694 103.878C105.583 95.2121 108.878 89.0145 114.618 83.336C117.614 80.3725 118.11 80.0078 121.202 78.4923C126.208 76.0394 130.846 74.8889 138.359 74.2363C141.465 73.9666 148.208 73.9179 151.591 74.1413Z" fill="#22252C"/>
</svg>
